<?xml version="1.0" encoding="utf-8"?>
<!-- Generator: Adobe Illustrator 19.0.0, SVG Export Plug-In . SVG Version: 6.00 Build 0)  -->
<svg version="1.1" id="Layer_1" xmlns="http://www.w3.org/2000/svg" xmlns:xlink="http://www.w3.org/1999/xlink" x="0px" y="0px"
	 viewBox="0 0 1080 1080" style="enable-background:new 0 0 1080 1080;" xml:space="preserve">
<path id="XMLID_47_" d="M504.1,2.1c25.3,0,50.6,0,75.9,0c17.3,2.4,34.7,4.2,51.9,7.2C731.7,26.7,820.3,68.1,896.4,135
	c95,83.5,154.6,187.5,177.3,312.1c3.4,18.9,5.7,38,8.5,57c0,25.3,0,50.6,0,75.9c-1.6,12.1-3,24.2-4.8,36.3
	c-15.6,106.5-58.2,200.9-129.5,281.6c-83.2,94.1-186.8,153.1-310.7,175.7c-18.9,3.4-38,5.6-57,8.4c-25.3,0-50.6,0-75.9,0
	c-3-0.7-6-1.6-9.1-2.1c-22.2-3.3-44.6-5.4-66.5-10.1c-103.2-22-192.3-70.8-267-145.1c-80.3-80-131-175.9-151.1-287.7
	c-3.4-18.9-5.6-38-8.4-57.1c0-25.3,0-50.6,0-75.9c0.7-3.4,1.6-6.8,2.1-10.2c2.5-18,4.1-36.3,7.6-54.1
	c20.8-106.5,69.3-198.7,145.4-276c80.4-81.5,177-133.1,289.9-153.3C466,7.2,485.1,4.9,504.1,2.1z M542.1,297
	c-92.4,0-184.9-0.1-277.3,0c-41.4,0-70.6,28.7-70.6,70c-0.2,116.7-0.2,233.4,0,350.1c0.1,41.3,29.2,70,70.6,70
	c184.9,0.1,369.8,0,554.7,0c5.6,0,11.3-0.1,16.7-1.3c33.4-7.5,53.9-34.4,53.9-70.8c0.1-114.6-0.5-229.2,0.3-343.8
	c0.3-45.6-33.3-75.3-74.1-74.7C724.9,298,633.5,297,542.1,297z"/>
<path id="XMLID_38_" d="M834.7,380.3c0,6.2,0,9.9,0,13.6c0,105.5,0,210.9,0,316.4c0,18.7-2.8,21.5-21,21.5c-181,0-362.1,0-543.1,0
	c-18,0-21-2.9-21-20.5c0-106.2,0-212.3,0-318.5c0-3.4,0.3-6.7,0.6-12.1c14.5,11.5,27.7,21.8,40.7,32.2
	c76.5,60.7,153,121.5,229.5,182.3c16,12.7,27.4,12.8,43.4,0.1C650.2,526.6,736.6,458,823,389.4C826.2,386.9,829.4,384.4,834.7,380.3
	z"/>
<path id="XMLID_37_" d="M305.6,352.9c158.2,0,314.7,0,474,0c-13.3,10.6-24.6,19.7-36,28.7c-64.9,51.6-129.9,103.1-194.7,154.8
	c-5.1,4.1-8.3,4.1-13.4,0.1C461,477.1,386.4,417.9,311.8,358.7C310,357.3,308.5,355.6,305.6,352.9z"/>
</svg>
