<?xml version="1.0" encoding="utf-8"?>
<!-- Generator: Adobe Illustrator 19.0.0, SVG Export Plug-In . SVG Version: 6.00 Build 0)  -->
<svg version="1.1" id="Layer_1" xmlns="http://www.w3.org/2000/svg" xmlns:xlink="http://www.w3.org/1999/xlink" x="0px" y="0px"
	 viewBox="0 0 1080 1080" style="enable-background:new 0 0 1080 1080;" xml:space="preserve">
<path id="XMLID_47_" d="M1073.7,447.1C1051,322.4,991.3,218.5,896.4,135C820.3,68.1,731.7,26.7,632,9.3c-17.2-3-34.6-4.8-51.9-7.2
	h-75.9c-19,2.8-38.1,5.1-57,8.5c-112.9,20.2-209.6,71.8-290,153.3C81,241.1,32.6,333.3,11.8,439.8c-3.5,17.8-5,36.1-7.5,54.1
	c-0.5,3.4-1.4,6.8-2.1,10.2v75.9c2.8,19,5,38.2,8.4,57.1c20.1,111.8,70.8,207.7,151.1,287.7c74.6,74.3,163.7,123.2,267,145.1
	c21.9,4.7,44.3,6.7,66.5,10.1c3.1,0.5,6,1.4,9.1,2.1h75.9c19-2.8,38.1-5,57-8.4C761,1051.1,864.5,992.1,947.8,898
	c71.4-80.7,113.9-175.1,129.5-281.6c1.8-12.1,3.2-24.2,4.8-36.3v-75.9C1079.3,485.1,1077.1,466,1073.7,447.1z M890.1,502.1
	c-1.1,19.3-5.9,37.9-14,55.5c-8.7,18.9-20.6,35.5-35.9,49.5c-21,19.3-45.4,32.3-73.3,38.2c-8.4,1.8-17.1,2.7-25.7,3.2
	c-7.7,0.5-15.5,0.5-23.2-0.1c-12-0.9-23.8-3.3-35.4-6.9c-20.8-6.5-39.2-17.2-56.2-30.5c-2.5-2-5-3.9-7.5-5.9c-0.1,0-0.1,0-0.9-0.1
	c-8.4,51.2-16.8,102.5-25.2,153.8h-71.7c2.6-14.8,5.3-29.7,8-44.5c2.5-14.3,5-28.5,7.5-42.8c2.8-16,5.6-32.1,8.5-48.1
	c2.3-13.2,4.6-26.4,7-39.6c2.4-13.3,4.8-26.5,7-39.8c0.2-1.3-0.2-3.1-0.9-4.2c-21.7-32.3-39.8-66.5-53.3-103.1
	c-5.8-15.7-10.4-31.9-15.5-47.9c-0.3-1-0.7-2-1.1-3c-0.2,0-0.5,0.1-0.7,0.1v2.8c0,35.7,0.6,71.4-0.2,107.1
	c-0.8,36.1-10.5,69.7-32.7,98.9c-20.2,26.6-46.9,43.2-79.5,50.6c-14.5,3.3-29.2,4.1-43.9,3.2c-31.5-1.8-59.6-12.8-83.8-33.3
	c-17.9-15.1-30.4-34-39.8-55.2c-6.2-13.9-10.2-28.4-12.2-43.5c-1-7.7-1.4-15.4-1.5-23.2c-0.1-51.9,0-103.8,0-155.7
	c0-3.3,0-3.3,3.4-3.3h63.9c3.1,0,3.1,0,3.1,3.2c0,51.3-0.2,102.6,0.1,153.8c0.1,19.1,3.9,37.6,13.1,54.6
	c10.4,19.2,25.7,32.4,47.3,36.8c21.1,4.4,41.4,2.1,59.3-11c11.7-8.6,19.5-20.3,24.8-33.8c4.4-11.1,7-22.6,7.8-34.5
	c0.5-7.7,0.9-15.5,0.9-23.2c0.1-47.6,0-95.1,0-142.7c0-3.3,0-3.3,3.4-3.3c38.9,0,77.8,0,116.6-0.1c2.4,0,3.3,0.7,3.8,3
	c8,35.9,20.1,70.5,35.7,103.8c0.3,0.7,0.7,1.3,1.4,2.5c0.5-1.6,0.9-2.7,1.1-3.7c8.4-33.4,26.1-60.7,53-82.2
	c19.4-15.6,41.6-25.3,65.9-29.9c10.1-1.9,20.3-3,30.6-2.4c18.8,1.1,37.5,2.7,55.4,9.2c19.4,7,36.9,17.1,52.4,30.7
	c23.1,20.4,38.9,45.5,47.4,75.1c2.9,10.1,5,20.3,5.4,30.8C890.1,481.6,890.6,491.9,890.1,502.1z M808.4,435.3
	c-10.4-19.4-25.8-33.3-46.6-40.7c-14.8-5.3-30-6-45.4-3.8c-11.9,1.7-22.9,5.9-32.8,12.8c-12.9,9-22.2,21.2-29.3,35
	c-13.7,26.5-19.5,55.2-23.4,84.4c-0.2,1.5,0,3.3,0.7,4.5c15.7,24.3,37.2,41.5,64.4,51c12.3,4.3,24.8,8.4,38.3,6.1
	c3.8-0.6,7.7-0.6,11.5-1.3c26.4-4.3,46.4-18,60.2-40.8c10.1-16.7,14.2-35,14.6-56.7c-0.3-3.3-0.7-8.9-1.3-14.5
	C818,458.8,814.5,446.6,808.4,435.3z"/>
</svg>
